<mxfile host="65bd71144e">
    <diagram id="YhAJBo5eRqrpQFUtm8kv" name="Page-1">
        <mxGraphModel dx="526" dy="346" grid="1" gridSize="10" guides="1" tooltips="1" connect="1" arrows="1" fold="1" page="1" pageScale="1" pageWidth="1100" pageHeight="850" math="0" shadow="0">
            <root>
                <mxCell id="0"/>
                <mxCell id="1" parent="0"/>
                <mxCell id="2" value="" style="shape=image;verticalLabelPosition=bottom;labelBackgroundColor=default;verticalAlign=top;aspect=fixed;imageAspect=0;image=data:image/png,iVBORw0KGgoAAAANSUhEUgAAAgAAAAIACAIAAAB7GkOtAAAAAXNSR0IArs4c6QAAE/ZJREFUeAHt1dGNxUAIA8DXf9O5v6sAS2t5UgCCWWJ+Px8BAgQIECBAgAABAgQIECBAgAABAgQIECBAgAABAgQIECBAgAABAgQIECBAgAABAgQIECBAgAABAgQIECBAgAABAgQIECBAgAABAgQIECBAgAABAgQIECBAgAABAgQIECBAgAABAgQIECBAgAABAgQIECBAgAABAgQIECBAgAABAgQIECBAgAABAgQIECBAgAABAgQIECBAgAABAgQIECBAgAABAgQIECBAgAABAgQIECBAgAABAgQIECBAgAABAgQIECBAgAABAgQIECBAgAABAgQIECBAgAABAgQIECBAgAABAgQIECBAgAABAgQIECBAgAABAgQIECBAgAABAgQIECBAgAABAgQIECBAgAABAgQIECBAgAABAgQIECBAgAABAgQIECBAgAABAgQIECBAgAABAgQIECBAgAABAgQIECBAgAABAgQIECBAgAABAgQIECBAgAABAgQIECBAgAABAgQIECBAgAABAgQIECBAgAABAgQIECBAgAABAgQIECBAgAABAgQIECBAgAABAgQIECBAgAABAgQIECBAgAABAgQIECBAgAABAgQIECBAgAABAgQIECBAgAABAgQIECBAgAABAgQIECBAgAABAgQIECBAgAABAgQIECBAgAABAgQIECBAgAABAgQIECBAgAABAgQIECBAgAABAgQIECBAgAABAgQIECBAgAABAgQIECBAgAABAgQIECBAgAABAgQIECBAgAABAgQIECBAgAABAgQIECBAgAABAgQIECBAgEBE4PMNC0RWSlECBFoEhtPP6F/LluqTAIGIgBRcFoislKIECLQILMef2Vu2VJ8ECEQEhOCyQGSlFCVAoEVgOf7M3rKl+iRAICIgBJcFIiulKAECLQLL8Wf2li3VJwECEQEhuCwQWSlFCRBoEViOP7O3bKk+CRCICAjBZYHISilKgECLwHL8mb1lS/VJgEBEQAguC0RWSlECBFoEluPP7C1bqk8CBCICQnBZILJSihIg0CKwHH9mb9lSfRIgEBEQgssCkZVSlACBFoHl+DN7y5bqkwCBiIAQXBaIrJSiBAi0CCzHn9lbtlSfBAhEBITgskBkpRQlQKBFYDn+zN6ypfokQCAiIASXBSIrpSgBAi0Cy/Fn9pYt1ScBAhEBIbgsEFkpRQkQaBFYjj+zt2ypPgkQiAgIwWWByEopSoBAi8By/Jm9ZUv1SYBAREAILgtEVkpRAgRaBJbjz+wtW6pPAgQiAkJwWSCyUooSINAisBx/Zm/ZUn0SIBAREILLApGVUpQAgRaB5fgze8uW6pMAgYiAEFwWiKyUogQItAgsx5/ZW7ZUnwQIRASE4LJAZKUUJUCgRWA5/szesqX6JEAgIiAElwUiK6UoAQItAsvxZ/aWLdUnAQIRASG4LBBZKUUJEGgRWI4/s7dsqT4JEIgICMFlgchKKUqAQIvAcvyZvWVL9UmAQERACC4LRFZKUQIEWgSW48/sLVuqTwIEIgJCcFkgslKKEiDQIrAcf2Zv2VJ9EiAQERCCywKRlVKUAIEWgeX4M3vLluqTAIGIgBBcFoislKIECLQILMef2Vu2VJ8ECEQEhOCyQGSlFCVAoEVgOf7M3rKl+iRAICIgBJcFIiulKAECLQLL8Wf2li3VJwECEQEhuCwQWSlFCRBoEViOP7O3bKk+CRCICAjBZYHISilKgECLwHL8mb1lS/VJgEBEQAguC0RWSlECBFoEluPP7C1bqk8CBCICQnBZILJSihIg0CKwHH9mb9lSfRIgEBEQgssCkZVSlACBFoHl+DN7y5bqkwCBiIAQXBaIrJSiBAi0CCzHn9lbtlSfBAhEBITgskBkpRQlQKBFYDn+zN6ypfokQCAiIASXBSIrpSgBAi0Cy/Fn9pYt1ScBAhEBIbgsEFkpRQkQaBFYjj+zt2ypPgkQiAgIwWWByEopSoBAi8By/Jm9ZUv1SYBAREAILgtEVkpRAgRaBJbjz+wtW6pPAgQiAkJwWSCyUooSINAisBx/Zm/ZUn0SIBAREILLApGVUpQAgRaB5fgze8uW6pMAgYiAEFwWiKyUogQItAgsx5/ZW7ZUnwQIRASE4LJAZKUUJUCAQIXAcvp/31fxRpokQIBARMABiLAqSoAAgfcFHID330iHBAgQiAg4ABFWRQkQIPC+gAPw/hvpkAABAhEBByDCqigBAgTeF3AA3n8jHRIgQCAi4ABEWBUlQIDA+wIOwPtvpEMCBAhEBByACKuiBAgQeF/AAXj/jXRIgACBiIADEGFVlAABAu8LOADvv5EOCRAgEBFwACKsihIgQOB9AQfg/TfSIQECBCICDkCEVVECBAi8L+AAvP9GOiRAgEBEwAGIsCpKgACB9wUcgPffSIcECBCICDgAEVZFCRAg8L6AA/D+G+mQAAECEQEHIMKqKAECBN4XcADefyMdEiBAICLgAERYFSVAgMD7Ag7A+2+kQwIECEQEHIAIq6IECBB4X8ABeP+NdEiAAIGIgAMQYVWUAAEC7ws4AO+/kQ4JECAQEXAAIqyKEiBA4H0BB+D9N9IhAQIEIgIOQIRVUQIECLwv4AC8/0Y6JECAQETAAYiwKkqAAIH3BRyA999IhwQIEIgIOAARVkUJECDwvoAD8P4b6ZAAAQIRAQcgwqooAQIE3hdwAN5/Ix0SIEAgIuAARFgVJUCAwPsCDsD7b6RDAgQIRAQcgAirogQIEHhfwAF4/410SIAAgYiAAxBhVZQAAQLvCzgA77+RDgkQIBARcAAirIoSIEDgfQEH4P030iEBAgQiAg5AhFVRAgQIvC/gALz/RjokQIBARMABiLAqSoAAgfcFHID330iHBAgQiAg4ABFWRQkQIPC+gAPw/hvpkAABAhEBByDCqigBAgTeF3AA3n8jHRIgQCAi4ABEWBUlQIDA+wIOwPtvpEMCBAhEBByACKuiBAgQeF/AAXj/jXRIgACBiIADEGFVlAABAu8LOADvv5EOCRAgEBFwACKsihIgQOB9AQfg/TfSIQECBCICDkCEVVECBAi8L+AAvP9GOiRAgEBEwAGIsCpKgACB9wUcgPffSIcECBCICDgAEVZFCRAg8L6AA/D+G+mQAAECEQEHIMKqKAECBN4XcADefyMdEiBAICLgAERYFSVAgMD7Ag7A+2+kQwIECEQEHIAIq6IECBB4X8ABeP+NdEiAAIGIgAMQYVWUAAEC7ws4AO+/kQ4JECAQEXAAIqyKEiBA4H0BB+D9N9IhAQIEIgIOQIRVUQIECLwv4AC8/0Y6JECAQETAAYiwKkqAAIH3BRyA999IhwQIEIgIOAARVkUJECDwvoAD8P4b6ZAAgZTAeAIan8CyQCpW1G0RWN5+sxMYF2iJKX2mBMZ/AOMTWBZIxYq6LQLL2292AuMCLTGlz5TA+A9gfALLAqlYUbdFYHn7zU5gXKAlpvSZEhj/AYxPYFkgFSvqtggsb7/ZCYwLtMSUPlMC4z+A8QksC6RiRd0WgeXtNzuBcYGWmNJnSmD8BzA+gWWBVKyo2yKwvP1mJzAu0BJT+kwJjP8AxiewLJCKFXVbBJa33+wExgVaYkqfKYHxH8D4BJYFUrGibovA8vabncC4QEtM6TMlMP4DGJ/AskAqVtRtEVjefrMTGBdoiSl9pgTGfwDjE1gWSMWKui0Cy9tvdgLjAi0xpc+UwPgPYHwCywKpWFG3RWB5+81OYFygJab0mRIY/wGMT2BZIBUr6rYILG+/2QmMC7TElD5TAuM/gPEJLAukYkXdFoHl7Tc7gXGBlpjSZ0pg/AcwPoFlgVSsqNsisLz9ZicwLtASU/pMCYz/AMYnsCyQihV1WwSWt9/sBMYFWmJKnymB8R/A+ASWBVKxom6LwPL2m53AuEBLTOkzJTD+AxifwLJAKlbUbRFY3n6zExgXaIkpfaYExn8A4xNYFkjFirotAsvbb3YC4wItMaXPlMD4D2B8AssCqVhRt0VgefvNTmBcoCWm9JkSGP8BjE9gWSAVK+q2CCxvv9kJjAu0xJQ+UwLjP4DxCSwLpGJF3RaB5e03O4FxgZaY0mdKYPwHMD6BZYFUrKjbIrC8/WYnMC7QElP6TAmM/wDGJ7AskIoVdVsElrff7ATGBVpiSp8pgfEfwPgElgVSsaJui8Dy9pudwLhAS0zpMyUw/gMYn8CyQCpW1G0RWN5+sxMYF2iJKX2mBMZ/AOMTWBZIxYq6LQLL2292AuMCLTGlz5TA+A9gfALLAqlYUbdFYHn7zU5gXKAlpvSZEhj/AYxPYFkgFSvqtggsb7/ZCYwLtMSUPlMC4z+A8QksC6RiRd0WgeXtNzuBcYGWmNJnSmD8BzA+gWWBVKyo2yKwvP1mJzAu0BJT+kwJjP8AxiewLJCKFXVbBJa33+wExgVaYkqfKYHxH8D4BJYFUrGibovA8vabncC4QEtM6TMlMP4DGJ/AskAqVtRtEVjefrMTGBdoiSl9pgTGfwDjE1gWSMWKui0Cy9tvdgLjAi0xpc+UwPgPYHwCywKpWFG3RWB5+81OYFygJab0mRIY/wGMT2BZIBUr6rYILG+/2QmMC7TElD5TAuM/gPEJLAukYkXdFoHl7Tc7gXGBlpjSZ0pg/AcwPoFlgVSsqNsisLz9ZicwLtASU/pMCYz/AMYnsCyQihV1WwSWt9/sBMYFWmJKnymB8R/A+ASWBVKxom6LwPL2m53AuEBLTOkzJTD+AxifwLJAKlbUbRFY3n6zExgXaIkpfaYExn8A4xNYFkjFirotAsvbb3YC4wItMaXPlMD4D2B8AssCqVhRt0VgefvNTmBcoCWm9EmAwL3AePx933dvqiIBAgQqBByAimfSJAECBO4FHIB7UxUJECBQIeAAVDyTJgkQIHAv4ADcm6pIgACBCgEHoOKZNEmAAIF7AQfg3lRFAgQIVAg4ABXPpEkCBAjcCzgA96YqEiBAoELAAah4Jk0SIEDgXsABuDdVkQABAhUCDkDFM2mSAAEC9wIOwL2pigQIEKgQcAAqnkmTBAgQuBdwAO5NVSRAgECFgANQ8UyaJECAwL2AA3BvqiIBAgQqBByAimfSJAECBO4FHIB7UxUJECBQIeAAVDyTJgkQIHAv4ADcm6pIgACBCgEHoOKZNEmAAIF7AQfg3lRFAgQIVAg4ABXPpEkCBAjcCzgA96YqEiBAoELAAah4Jk0SIEDgXsABuDdVkQABAhUCDkDFM2mSAAEC9wIOwL2pigQIEKgQcAAqnkmTBAgQuBdwAO5NVSRAgECFgANQ8UyaJECAwL2AA3BvqiIBAgQqBByAimfSJAECBO4FHIB7UxUJECBQIeAAVDyTJgkQIHAv4ADcm6pIgACBCgEHoOKZNEmAAIF7AQfg3lRFAgQIVAg4ABXPpEkCBAjcCzgA96YqEiBAoELAAah4Jk0SIEDgXsABuDdVkQABAhUCDkDFM2mSAAEC9wIOwL2pigQIEKgQcAAqnkmTBAgQuBdwAO5NVSRAgECFgANQ8UyaJECAwL2AA3BvqiIBAgQqBByAimfSJAECBO4FHIB7UxUJECBQIeAAVDyTJgkQIHAv4ADcm6pIgACBCgEHoOKZNEmAAIF7AQfg3lRFAgQIVAg4ABXPpEkCBAjcCzgA96YqEiBAoELAAah4Jk0SIEDgXsABuDdVkQABAhUCDkDFM2mSAAEC9wIOwL2pigQIEKgQcAAqnkmTBAgQuBdwAO5NVSRAgECFgANQ8UyaJECAwL2AA3BvqiIBAgQqBByAimfSJAECBO4FHIB7UxUJECBQIeAAVDyTJgkQIHAv4ADcm6pIgACBCgEHoOKZNEmAAIF7AQfg3lRFAgQIVAg4ABXPpEkCBAjcCzgA96YqEiBAoELAAah4Jk0SIEDgXsABuDdVkQABAhUCDkDFM2mSAAEC9wIOwL2pigQIEKgQcAAqnkmTBAgQuBdwAO5NVSRAgECFgANQ8UyaJECAwL2AA3BvqiIBAgQqBByAimfSJAECBO4FHIB7UxUJECBQIeAAVDyTJgkQIHAv4ADcm6pIgAABAgQIECBAgAABAgQIECBAgAABAgQIECBAgAABAgQIECBAgAABAgQIECBAgAABAgQIECBAgAABAgQIECBAgAABAgQIECBAgAABAgQIECBAgAABAgQIECBAgAABAgQIECBAgAABAgQIECBAgAABAgQIECBAgAABAgQIECBAgAABAgQIECBAgAABAgQIECBAgAABAgQIECBAgAABAgQIECBAgAABAgQIECBAgAABAgQIECBAgAABAgQIECBAgAABAgQIECBAgAABAgQIECBAgAABAgQIECBAgAABAgQIECBAgAABAgQIECBAgAABAgQIECBAgAABAgQIECBAgAABAgQIECBAgAABAgQIECBAgAABAgQIECBAgAABAgQIECBAgAABAgQIECBAgAABAgQIECBAgAABAgQIECBAgAABAgQIECBAgAABAgQIECBAgAABAgQIECBAgAABAgQIECBAgAABAgQIECBAgAABAgQIECBAgAABAgQIECBAgAABAgQIECBAgAABAgQIECBAgAABAgQIECBAgAABAgQIECBAgAABAgQIECBAgAABAgQIECBAgAABAgQIECBAgAABAgQIECBAgAABAgQIECBAgAABAgQIECBAgAABAgQIECBAgAABAgQIECBAgAABAgQIECBAgAABAgQIECBAgAABAgQIECBAgAABAgQIECBAgAABAgQIECBAgAABAgQIECBAgAABAgQIECBAgAABAgQIECBAgAABAgQIECBAgACBf4E/c9/RhEAtr8kAAAAASUVORK5CYII=;" vertex="1" parent="1">
                    <mxGeometry x="50" y="210" width="80" height="80" as="geometry"/>
                </mxCell>
                <mxCell id="4" value="0" style="text;html=1;align=center;verticalAlign=middle;whiteSpace=wrap;rounded=0;" vertex="1" parent="1">
                    <mxGeometry x="20" y="185" width="60" height="20" as="geometry"/>
                </mxCell>
                <mxCell id="8" value="" style="ellipse;whiteSpace=wrap;html=1;aspect=fixed;fillColor=#FF8000;" vertex="1" parent="1">
                    <mxGeometry x="125" y="205" width="10" height="10" as="geometry"/>
                </mxCell>
                <mxCell id="9" value="" style="ellipse;whiteSpace=wrap;html=1;aspect=fixed;fillColor=#FF0000;" vertex="1" parent="1">
                    <mxGeometry x="45" y="205" width="10" height="10" as="geometry"/>
                </mxCell>
                <mxCell id="10" value="" style="ellipse;whiteSpace=wrap;html=1;aspect=fixed;fillColor=#80FF00;" vertex="1" parent="1">
                    <mxGeometry x="45" y="285" width="10" height="10" as="geometry"/>
                </mxCell>
                <mxCell id="11" value="" style="ellipse;whiteSpace=wrap;html=1;aspect=fixed;fillColor=#FFFF00;" vertex="1" parent="1">
                    <mxGeometry x="125" y="285" width="10" height="10" as="geometry"/>
                </mxCell>
                <mxCell id="12" value="1" style="text;html=1;align=center;verticalAlign=middle;whiteSpace=wrap;rounded=0;" vertex="1" parent="1">
                    <mxGeometry x="100" y="185" width="60" height="20" as="geometry"/>
                </mxCell>
                <mxCell id="13" value="3" style="text;html=1;align=center;verticalAlign=middle;whiteSpace=wrap;rounded=0;" vertex="1" parent="1">
                    <mxGeometry x="20" y="295" width="60" height="20" as="geometry"/>
                </mxCell>
                <mxCell id="14" value="2" style="text;html=1;align=center;verticalAlign=middle;whiteSpace=wrap;rounded=0;" vertex="1" parent="1">
                    <mxGeometry x="100" y="295" width="60" height="20" as="geometry"/>
                </mxCell>
                <mxCell id="15" value="" style="shape=image;verticalLabelPosition=bottom;labelBackgroundColor=default;verticalAlign=top;aspect=fixed;imageAspect=0;image=data:image/png,iVBORw0KGgoAAAANSUhEUgAAAgAAAAIACAIAAAB7GkOtAAAAAXNSR0IArs4c6QAAE/ZJREFUeAHt1dGNxUAIA8DXf9O5v6sAS2t5UgCCWWJ+Px8BAgQIECBAgAABAgQIECBAgAABAgQIECBAgAABAgQIECBAgAABAgQIECBAgAABAgQIECBAgAABAgQIECBAgAABAgQIECBAgAABAgQIECBAgAABAgQIECBAgAABAgQIECBAgAABAgQIECBAgAABAgQIECBAgAABAgQIECBAgAABAgQIECBAgAABAgQIECBAgAABAgQIECBAgAABAgQIECBAgAABAgQIECBAgAABAgQIECBAgAABAgQIECBAgAABAgQIECBAgAABAgQIECBAgAABAgQIECBAgAABAgQIECBAgAABAgQIECBAgAABAgQIECBAgAABAgQIECBAgAABAgQIECBAgAABAgQIECBAgAABAgQIECBAgAABAgQIECBAgAABAgQIECBAgAABAgQIECBAgAABAgQIECBAgAABAgQIECBAgAABAgQIECBAgAABAgQIECBAgAABAgQIECBAgAABAgQIECBAgAABAgQIECBAgAABAgQIECBAgAABAgQIECBAgAABAgQIECBAgAABAgQIECBAgAABAgQIECBAgAABAgQIECBAgAABAgQIECBAgAABAgQIECBAgAABAgQIECBAgAABAgQIECBAgAABAgQIECBAgAABAgQIECBAgAABAgQIECBAgAABAgQIECBAgAABAgQIECBAgAABAgQIECBAgAABAgQIECBAgAABAgQIECBAgAABAgQIECBAgAABAgQIECBAgAABAgQIECBAgAABAgQIECBAgAABAgQIECBAgEBE4PMNC0RWSlECBFoEhtPP6F/LluqTAIGIgBRcFoislKIECLQILMef2Vu2VJ8ECEQEhOCyQGSlFCVAoEVgOf7M3rKl+iRAICIgBJcFIiulKAECLQLL8Wf2li3VJwECEQEhuCwQWSlFCRBoEViOP7O3bKk+CRCICAjBZYHISilKgECLwHL8mb1lS/VJgEBEQAguC0RWSlECBFoEluPP7C1bqk8CBCICQnBZILJSihIg0CKwHH9mb9lSfRIgEBEQgssCkZVSlACBFoHl+DN7y5bqkwCBiIAQXBaIrJSiBAi0CCzHn9lbtlSfBAhEBITgskBkpRQlQKBFYDn+zN6ypfokQCAiIASXBSIrpSgBAi0Cy/Fn9pYt1ScBAhEBIbgsEFkpRQkQaBFYjj+zt2ypPgkQiAgIwWWByEopSoBAi8By/Jm9ZUv1SYBAREAILgtEVkpRAgRaBJbjz+wtW6pPAgQiAkJwWSCyUooSINAisBx/Zm/ZUn0SIBAREILLApGVUpQAgRaB5fgze8uW6pMAgYiAEFwWiKyUogQItAgsx5/ZW7ZUnwQIRASE4LJAZKUUJUCgRWA5/szesqX6JEAgIiAElwUiK6UoAQItAsvxZ/aWLdUnAQIRASG4LBBZKUUJEGgRWI4/s7dsqT4JEIgICMFlgchKKUqAQIvAcvyZvWVL9UmAQERACC4LRFZKUQIEWgSW48/sLVuqTwIEIgJCcFkgslKKEiDQIrAcf2Zv2VJ9EiAQERCCywKRlVKUAIEWgeX4M3vLluqTAIGIgBBcFoislKIECLQILMef2Vu2VJ8ECEQEhOCyQGSlFCVAoEVgOf7M3rKl+iRAICIgBJcFIiulKAECLQLL8Wf2li3VJwECEQEhuCwQWSlFCRBoEViOP7O3bKk+CRCICAjBZYHISilKgECLwHL8mb1lS/VJgEBEQAguC0RWSlECBFoEluPP7C1bqk8CBCICQnBZILJSihIg0CKwHH9mb9lSfRIgEBEQgssCkZVSlACBFoHl+DN7y5bqkwCBiIAQXBaIrJSiBAi0CCzHn9lbtlSfBAhEBITgskBkpRQlQKBFYDn+zN6ypfokQCAiIASXBSIrpSgBAi0Cy/Fn9pYt1ScBAhEBIbgsEFkpRQkQaBFYjj+zt2ypPgkQiAgIwWWByEopSoBAi8By/Jm9ZUv1SYBAREAILgtEVkpRAgRaBJbjz+wtW6pPAgQiAkJwWSCyUooSINAisBx/Zm/ZUn0SIBAREILLApGVUpQAgRaB5fgze8uW6pMAgYiAEFwWiKyUogQItAgsx5/ZW7ZUnwQIRASE4LJAZKUUJUCAQIXAcvp/31fxRpokQIBARMABiLAqSoAAgfcFHID330iHBAgQiAg4ABFWRQkQIPC+gAPw/hvpkAABAhEBByDCqigBAgTeF3AA3n8jHRIgQCAi4ABEWBUlQIDA+wIOwPtvpEMCBAhEBByACKuiBAgQeF/AAXj/jXRIgACBiIADEGFVlAABAu8LOADvv5EOCRAgEBFwACKsihIgQOB9AQfg/TfSIQECBCICDkCEVVECBAi8L+AAvP9GOiRAgEBEwAGIsCpKgACB9wUcgPffSIcECBCICDgAEVZFCRAg8L6AA/D+G+mQAAECEQEHIMKqKAECBN4XcADefyMdEiBAICLgAERYFSVAgMD7Ag7A+2+kQwIECEQEHIAIq6IECBB4X8ABeP+NdEiAAIGIgAMQYVWUAAEC7ws4AO+/kQ4JECAQEXAAIqyKEiBA4H0BB+D9N9IhAQIEIgIOQIRVUQIECLwv4AC8/0Y6JECAQETAAYiwKkqAAIH3BRyA999IhwQIEIgIOAARVkUJECDwvoAD8P4b6ZAAAQIRAQcgwqooAQIE3hdwAN5/Ix0SIEAgIuAARFgVJUCAwPsCDsD7b6RDAgQIRAQcgAirogQIEHhfwAF4/410SIAAgYiAAxBhVZQAAQLvCzgA77+RDgkQIBARcAAirIoSIEDgfQEH4P030iEBAgQiAg5AhFVRAgQIvC/gALz/RjokQIBARMABiLAqSoAAgfcFHID330iHBAgQiAg4ABFWRQkQIPC+gAPw/hvpkAABAhEBByDCqigBAgTeF3AA3n8jHRIgQCAi4ABEWBUlQIDA+wIOwPtvpEMCBAhEBByACKuiBAgQeF/AAXj/jXRIgACBiIADEGFVlAABAu8LOADvv5EOCRAgEBFwACKsihIgQOB9AQfg/TfSIQECBCICDkCEVVECBAi8L+AAvP9GOiRAgEBEwAGIsCpKgACB9wUcgPffSIcECBCICDgAEVZFCRAg8L6AA/D+G+mQAAECEQEHIMKqKAECBN4XcADefyMdEiBAICLgAERYFSVAgMD7Ag7A+2+kQwIECEQEHIAIq6IECBB4X8ABeP+NdEiAAIGIgAMQYVWUAAEC7ws4AO+/kQ4JECAQEXAAIqyKEiBA4H0BB+D9N9IhAQIEIgIOQIRVUQIECLwv4AC8/0Y6JECAQETAAYiwKkqAAIH3BRyA999IhwQIEIgIOAARVkUJECDwvoAD8P4b6ZAAgZTAeAIan8CyQCpW1G0RWN5+sxMYF2iJKX2mBMZ/AOMTWBZIxYq6LQLL2292AuMCLTGlz5TA+A9gfALLAqlYUbdFYHn7zU5gXKAlpvSZEhj/AYxPYFkgFSvqtggsb7/ZCYwLtMSUPlMC4z+A8QksC6RiRd0WgeXtNzuBcYGWmNJnSmD8BzA+gWWBVKyo2yKwvP1mJzAu0BJT+kwJjP8AxiewLJCKFXVbBJa33+wExgVaYkqfKYHxH8D4BJYFUrGibovA8vabncC4QEtM6TMlMP4DGJ/AskAqVtRtEVjefrMTGBdoiSl9pgTGfwDjE1gWSMWKui0Cy9tvdgLjAi0xpc+UwPgPYHwCywKpWFG3RWB5+81OYFygJab0mRIY/wGMT2BZIBUr6rYILG+/2QmMC7TElD5TAuM/gPEJLAukYkXdFoHl7Tc7gXGBlpjSZ0pg/AcwPoFlgVSsqNsisLz9ZicwLtASU/pMCYz/AMYnsCyQihV1WwSWt9/sBMYFWmJKnymB8R/A+ASWBVKxom6LwPL2m53AuEBLTOkzJTD+AxifwLJAKlbUbRFY3n6zExgXaIkpfaYExn8A4xNYFkjFirotAsvbb3YC4wItMaXPlMD4D2B8AssCqVhRt0VgefvNTmBcoCWm9JkSGP8BjE9gWSAVK+q2CCxvv9kJjAu0xJQ+UwLjP4DxCSwLpGJF3RaB5e03O4FxgZaY0mdKYPwHMD6BZYFUrKjbIrC8/WYnMC7QElP6TAmM/wDGJ7AskIoVdVsElrff7ATGBVpiSp8pgfEfwPgElgVSsaJui8Dy9pudwLhAS0zpMyUw/gMYn8CyQCpW1G0RWN5+sxMYF2iJKX2mBMZ/AOMTWBZIxYq6LQLL2292AuMCLTGlz5TA+A9gfALLAqlYUbdFYHn7zU5gXKAlpvSZEhj/AYxPYFkgFSvqtggsb7/ZCYwLtMSUPlMC4z+A8QksC6RiRd0WgeXtNzuBcYGWmNJnSmD8BzA+gWWBVKyo2yKwvP1mJzAu0BJT+kwJjP8AxiewLJCKFXVbBJa33+wExgVaYkqfKYHxH8D4BJYFUrGibovA8vabncC4QEtM6TMlMP4DGJ/AskAqVtRtEVjefrMTGBdoiSl9pgTGfwDjE1gWSMWKui0Cy9tvdgLjAi0xpc+UwPgPYHwCywKpWFG3RWB5+81OYFygJab0mRIY/wGMT2BZIBUr6rYILG+/2QmMC7TElD5TAuM/gPEJLAukYkXdFoHl7Tc7gXGBlpjSZ0pg/AcwPoFlgVSsqNsisLz9ZicwLtASU/pMCYz/AMYnsCyQihV1WwSWt9/sBMYFWmJKnymB8R/A+ASWBVKxom6LwPL2m53AuEBLTOkzJTD+AxifwLJAKlbUbRFY3n6zExgXaIkpfaYExn8A4xNYFkjFirotAsvbb3YC4wItMaXPlMD4D2B8AssCqVhRt0VgefvNTmBcoCWm9EmAwL3AePx933dvqiIBAgQqBByAimfSJAECBO4FHIB7UxUJECBQIeAAVDyTJgkQIHAv4ADcm6pIgACBCgEHoOKZNEmAAIF7AQfg3lRFAgQIVAg4ABXPpEkCBAjcCzgA96YqEiBAoELAAah4Jk0SIEDgXsABuDdVkQABAhUCDkDFM2mSAAEC9wIOwL2pigQIEKgQcAAqnkmTBAgQuBdwAO5NVSRAgECFgANQ8UyaJECAwL2AA3BvqiIBAgQqBByAimfSJAECBO4FHIB7UxUJECBQIeAAVDyTJgkQIHAv4ADcm6pIgACBCgEHoOKZNEmAAIF7AQfg3lRFAgQIVAg4ABXPpEkCBAjcCzgA96YqEiBAoELAAah4Jk0SIEDgXsABuDdVkQABAhUCDkDFM2mSAAEC9wIOwL2pigQIEKgQcAAqnkmTBAgQuBdwAO5NVSRAgECFgANQ8UyaJECAwL2AA3BvqiIBAgQqBByAimfSJAECBO4FHIB7UxUJECBQIeAAVDyTJgkQIHAv4ADcm6pIgACBCgEHoOKZNEmAAIF7AQfg3lRFAgQIVAg4ABXPpEkCBAjcCzgA96YqEiBAoELAAah4Jk0SIEDgXsABuDdVkQABAhUCDkDFM2mSAAEC9wIOwL2pigQIEKgQcAAqnkmTBAgQuBdwAO5NVSRAgECFgANQ8UyaJECAwL2AA3BvqiIBAgQqBByAimfSJAECBO4FHIB7UxUJECBQIeAAVDyTJgkQIHAv4ADcm6pIgACBCgEHoOKZNEmAAIF7AQfg3lRFAgQIVAg4ABXPpEkCBAjcCzgA96YqEiBAoELAAah4Jk0SIEDgXsABuDdVkQABAhUCDkDFM2mSAAEC9wIOwL2pigQIEKgQcAAqnkmTBAgQuBdwAO5NVSRAgECFgANQ8UyaJECAwL2AA3BvqiIBAgQqBByAimfSJAECBO4FHIB7UxUJECBQIeAAVDyTJgkQIHAv4ADcm6pIgACBCgEHoOKZNEmAAIF7AQfg3lRFAgQIVAg4ABXPpEkCBAjcCzgA96YqEiBAoELAAah4Jk0SIEDgXsABuDdVkQABAhUCDkDFM2mSAAEC9wIOwL2pigQIEKgQcAAqnkmTBAgQuBdwAO5NVSRAgECFgANQ8UyaJECAwL2AA3BvqiIBAgQqBByAimfSJAECBO4FHIB7UxUJECBQIeAAVDyTJgkQIHAv4ADcm6pIgAABAgQIECBAgAABAgQIECBAgAABAgQIECBAgAABAgQIECBAgAABAgQIECBAgAABAgQIECBAgAABAgQIECBAgAABAgQIECBAgAABAgQIECBAgAABAgQIECBAgAABAgQIECBAgAABAgQIECBAgAABAgQIECBAgAABAgQIECBAgAABAgQIECBAgAABAgQIECBAgAABAgQIECBAgAABAgQIECBAgAABAgQIECBAgAABAgQIECBAgAABAgQIECBAgAABAgQIECBAgAABAgQIECBAgAABAgQIECBAgAABAgQIECBAgAABAgQIECBAgAABAgQIECBAgAABAgQIECBAgAABAgQIECBAgAABAgQIECBAgAABAgQIECBAgAABAgQIECBAgAABAgQIECBAgAABAgQIECBAgAABAgQIECBAgAABAgQIECBAgAABAgQIECBAgAABAgQIECBAgAABAgQIECBAgAABAgQIECBAgAABAgQIECBAgAABAgQIECBAgAABAgQIECBAgAABAgQIECBAgAABAgQIECBAgAABAgQIECBAgAABAgQIECBAgAABAgQIECBAgAABAgQIECBAgAABAgQIECBAgAABAgQIECBAgAABAgQIECBAgAABAgQIECBAgAABAgQIECBAgAABAgQIECBAgAABAgQIECBAgAABAgQIECBAgAABAgQIECBAgAABAgQIECBAgAABAgQIECBAgAABAgQIECBAgAABAgQIECBAgAABAgQIECBAgACBf4E/c9/RhEAtr8kAAAAASUVORK5CYII=;direction=south;" vertex="1" parent="1">
                    <mxGeometry x="190" y="210" width="80" height="80" as="geometry"/>
                </mxCell>
                <mxCell id="16" value="" style="ellipse;whiteSpace=wrap;html=1;aspect=fixed;fillColor=#FF8000;" vertex="1" parent="1">
                    <mxGeometry x="265" y="285" width="10" height="10" as="geometry"/>
                </mxCell>
                <mxCell id="17" value="" style="ellipse;whiteSpace=wrap;html=1;aspect=fixed;fillColor=#FF0000;" vertex="1" parent="1">
                    <mxGeometry x="265" y="205" width="10" height="10" as="geometry"/>
                </mxCell>
                <mxCell id="18" value="" style="ellipse;whiteSpace=wrap;html=1;aspect=fixed;fillColor=#80FF00;" vertex="1" parent="1">
                    <mxGeometry x="185" y="205" width="10" height="10" as="geometry"/>
                </mxCell>
                <mxCell id="19" value="" style="ellipse;whiteSpace=wrap;html=1;aspect=fixed;fillColor=#FFFF00;" vertex="1" parent="1">
                    <mxGeometry x="185" y="285" width="10" height="10" as="geometry"/>
                </mxCell>
                <mxCell id="20" value="0" style="text;html=1;align=center;verticalAlign=middle;whiteSpace=wrap;rounded=0;" vertex="1" parent="1">
                    <mxGeometry x="240" y="185" width="60" height="20" as="geometry"/>
                </mxCell>
                <mxCell id="21" value="1" style="text;html=1;align=center;verticalAlign=middle;whiteSpace=wrap;rounded=0;" vertex="1" parent="1">
                    <mxGeometry x="240" y="295" width="60" height="20" as="geometry"/>
                </mxCell>
                <mxCell id="22" value="3" style="text;html=1;align=center;verticalAlign=middle;whiteSpace=wrap;rounded=0;" vertex="1" parent="1">
                    <mxGeometry x="160" y="185" width="60" height="20" as="geometry"/>
                </mxCell>
                <mxCell id="23" value="2" style="text;html=1;align=center;verticalAlign=middle;whiteSpace=wrap;rounded=0;" vertex="1" parent="1">
                    <mxGeometry x="160" y="295" width="60" height="20" as="geometry"/>
                </mxCell>
                <mxCell id="25" value="" style="shape=image;verticalLabelPosition=bottom;labelBackgroundColor=default;verticalAlign=top;aspect=fixed;imageAspect=0;image=data:image/png,iVBORw0KGgoAAAANSUhEUgAAAgAAAAIACAIAAAB7GkOtAAAAAXNSR0IArs4c6QAAE/ZJREFUeAHt1dGNxUAIA8DXf9O5v6sAS2t5UgCCWWJ+Px8BAgQIECBAgAABAgQIECBAgAABAgQIECBAgAABAgQIECBAgAABAgQIECBAgAABAgQIECBAgAABAgQIECBAgAABAgQIECBAgAABAgQIECBAgAABAgQIECBAgAABAgQIECBAgAABAgQIECBAgAABAgQIECBAgAABAgQIECBAgAABAgQIECBAgAABAgQIECBAgAABAgQIECBAgAABAgQIECBAgAABAgQIECBAgAABAgQIECBAgAABAgQIECBAgAABAgQIECBAgAABAgQIECBAgAABAgQIECBAgAABAgQIECBAgAABAgQIECBAgAABAgQIECBAgAABAgQIECBAgAABAgQIECBAgAABAgQIECBAgAABAgQIECBAgAABAgQIECBAgAABAgQIECBAgAABAgQIECBAgAABAgQIECBAgAABAgQIECBAgAABAgQIECBAgAABAgQIECBAgAABAgQIECBAgAABAgQIECBAgAABAgQIECBAgAABAgQIECBAgAABAgQIECBAgAABAgQIECBAgAABAgQIECBAgAABAgQIECBAgAABAgQIECBAgAABAgQIECBAgAABAgQIECBAgAABAgQIECBAgAABAgQIECBAgAABAgQIECBAgAABAgQIECBAgAABAgQIECBAgAABAgQIECBAgAABAgQIECBAgAABAgQIECBAgAABAgQIECBAgAABAgQIECBAgAABAgQIECBAgAABAgQIECBAgAABAgQIECBAgAABAgQIECBAgAABAgQIECBAgEBE4PMNC0RWSlECBFoEhtPP6F/LluqTAIGIgBRcFoislKIECLQILMef2Vu2VJ8ECEQEhOCyQGSlFCVAoEVgOf7M3rKl+iRAICIgBJcFIiulKAECLQLL8Wf2li3VJwECEQEhuCwQWSlFCRBoEViOP7O3bKk+CRCICAjBZYHISilKgECLwHL8mb1lS/VJgEBEQAguC0RWSlECBFoEluPP7C1bqk8CBCICQnBZILJSihIg0CKwHH9mb9lSfRIgEBEQgssCkZVSlACBFoHl+DN7y5bqkwCBiIAQXBaIrJSiBAi0CCzHn9lbtlSfBAhEBITgskBkpRQlQKBFYDn+zN6ypfokQCAiIASXBSIrpSgBAi0Cy/Fn9pYt1ScBAhEBIbgsEFkpRQkQaBFYjj+zt2ypPgkQiAgIwWWByEopSoBAi8By/Jm9ZUv1SYBAREAILgtEVkpRAgRaBJbjz+wtW6pPAgQiAkJwWSCyUooSINAisBx/Zm/ZUn0SIBAREILLApGVUpQAgRaB5fgze8uW6pMAgYiAEFwWiKyUogQItAgsx5/ZW7ZUnwQIRASE4LJAZKUUJUCgRWA5/szesqX6JEAgIiAElwUiK6UoAQItAsvxZ/aWLdUnAQIRASG4LBBZKUUJEGgRWI4/s7dsqT4JEIgICMFlgchKKUqAQIvAcvyZvWVL9UmAQERACC4LRFZKUQIEWgSW48/sLVuqTwIEIgJCcFkgslKKEiDQIrAcf2Zv2VJ9EiAQERCCywKRlVKUAIEWgeX4M3vLluqTAIGIgBBcFoislKIECLQILMef2Vu2VJ8ECEQEhOCyQGSlFCVAoEVgOf7M3rKl+iRAICIgBJcFIiulKAECLQLL8Wf2li3VJwECEQEhuCwQWSlFCRBoEViOP7O3bKk+CRCICAjBZYHISilKgECLwHL8mb1lS/VJgEBEQAguC0RWSlECBFoEluPP7C1bqk8CBCICQnBZILJSihIg0CKwHH9mb9lSfRIgEBEQgssCkZVSlACBFoHl+DN7y5bqkwCBiIAQXBaIrJSiBAi0CCzHn9lbtlSfBAhEBITgskBkpRQlQKBFYDn+zN6ypfokQCAiIASXBSIrpSgBAi0Cy/Fn9pYt1ScBAhEBIbgsEFkpRQkQaBFYjj+zt2ypPgkQiAgIwWWByEopSoBAi8By/Jm9ZUv1SYBAREAILgtEVkpRAgRaBJbjz+wtW6pPAgQiAkJwWSCyUooSINAisBx/Zm/ZUn0SIBAREILLApGVUpQAgRaB5fgze8uW6pMAgYiAEFwWiKyUogQItAgsx5/ZW7ZUnwQIRASE4LJAZKUUJUCAQIXAcvp/31fxRpokQIBARMABiLAqSoAAgfcFHID330iHBAgQiAg4ABFWRQkQIPC+gAPw/hvpkAABAhEBByDCqigBAgTeF3AA3n8jHRIgQCAi4ABEWBUlQIDA+wIOwPtvpEMCBAhEBByACKuiBAgQeF/AAXj/jXRIgACBiIADEGFVlAABAu8LOADvv5EOCRAgEBFwACKsihIgQOB9AQfg/TfSIQECBCICDkCEVVECBAi8L+AAvP9GOiRAgEBEwAGIsCpKgACB9wUcgPffSIcECBCICDgAEVZFCRAg8L6AA/D+G+mQAAECEQEHIMKqKAECBN4XcADefyMdEiBAICLgAERYFSVAgMD7Ag7A+2+kQwIECEQEHIAIq6IECBB4X8ABeP+NdEiAAIGIgAMQYVWUAAEC7ws4AO+/kQ4JECAQEXAAIqyKEiBA4H0BB+D9N9IhAQIEIgIOQIRVUQIECLwv4AC8/0Y6JECAQETAAYiwKkqAAIH3BRyA999IhwQIEIgIOAARVkUJECDwvoAD8P4b6ZAAAQIRAQcgwqooAQIE3hdwAN5/Ix0SIEAgIuAARFgVJUCAwPsCDsD7b6RDAgQIRAQcgAirogQIEHhfwAF4/410SIAAgYiAAxBhVZQAAQLvCzgA77+RDgkQIBARcAAirIoSIEDgfQEH4P030iEBAgQiAg5AhFVRAgQIvC/gALz/RjokQIBARMABiLAqSoAAgfcFHID330iHBAgQiAg4ABFWRQkQIPC+gAPw/hvpkAABAhEBByDCqigBAgTeF3AA3n8jHRIgQCAi4ABEWBUlQIDA+wIOwPtvpEMCBAhEBByACKuiBAgQeF/AAXj/jXRIgACBiIADEGFVlAABAu8LOADvv5EOCRAgEBFwACKsihIgQOB9AQfg/TfSIQECBCICDkCEVVECBAi8L+AAvP9GOiRAgEBEwAGIsCpKgACB9wUcgPffSIcECBCICDgAEVZFCRAg8L6AA/D+G+mQAAECEQEHIMKqKAECBN4XcADefyMdEiBAICLgAERYFSVAgMD7Ag7A+2+kQwIECEQEHIAIq6IECBB4X8ABeP+NdEiAAIGIgAMQYVWUAAEC7ws4AO+/kQ4JECAQEXAAIqyKEiBA4H0BB+D9N9IhAQIEIgIOQIRVUQIECLwv4AC8/0Y6JECAQETAAYiwKkqAAIH3BRyA999IhwQIEIgIOAARVkUJECDwvoAD8P4b6ZAAgZTAeAIan8CyQCpW1G0RWN5+sxMYF2iJKX2mBMZ/AOMTWBZIxYq6LQLL2292AuMCLTGlz5TA+A9gfALLAqlYUbdFYHn7zU5gXKAlpvSZEhj/AYxPYFkgFSvqtggsb7/ZCYwLtMSUPlMC4z+A8QksC6RiRd0WgeXtNzuBcYGWmNJnSmD8BzA+gWWBVKyo2yKwvP1mJzAu0BJT+kwJjP8AxiewLJCKFXVbBJa33+wExgVaYkqfKYHxH8D4BJYFUrGibovA8vabncC4QEtM6TMlMP4DGJ/AskAqVtRtEVjefrMTGBdoiSl9pgTGfwDjE1gWSMWKui0Cy9tvdgLjAi0xpc+UwPgPYHwCywKpWFG3RWB5+81OYFygJab0mRIY/wGMT2BZIBUr6rYILG+/2QmMC7TElD5TAuM/gPEJLAukYkXdFoHl7Tc7gXGBlpjSZ0pg/AcwPoFlgVSsqNsisLz9ZicwLtASU/pMCYz/AMYnsCyQihV1WwSWt9/sBMYFWmJKnymB8R/A+ASWBVKxom6LwPL2m53AuEBLTOkzJTD+AxifwLJAKlbUbRFY3n6zExgXaIkpfaYExn8A4xNYFkjFirotAsvbb3YC4wItMaXPlMD4D2B8AssCqVhRt0VgefvNTmBcoCWm9JkSGP8BjE9gWSAVK+q2CCxvv9kJjAu0xJQ+UwLjP4DxCSwLpGJF3RaB5e03O4FxgZaY0mdKYPwHMD6BZYFUrKjbIrC8/WYnMC7QElP6TAmM/wDGJ7AskIoVdVsElrff7ATGBVpiSp8pgfEfwPgElgVSsaJui8Dy9pudwLhAS0zpMyUw/gMYn8CyQCpW1G0RWN5+sxMYF2iJKX2mBMZ/AOMTWBZIxYq6LQLL2292AuMCLTGlz5TA+A9gfALLAqlYUbdFYHn7zU5gXKAlpvSZEhj/AYxPYFkgFSvqtggsb7/ZCYwLtMSUPlMC4z+A8QksC6RiRd0WgeXtNzuBcYGWmNJnSmD8BzA+gWWBVKyo2yKwvP1mJzAu0BJT+kwJjP8AxiewLJCKFXVbBJa33+wExgVaYkqfKYHxH8D4BJYFUrGibovA8vabncC4QEtM6TMlMP4DGJ/AskAqVtRtEVjefrMTGBdoiSl9pgTGfwDjE1gWSMWKui0Cy9tvdgLjAi0xpc+UwPgPYHwCywKpWFG3RWB5+81OYFygJab0mRIY/wGMT2BZIBUr6rYILG+/2QmMC7TElD5TAuM/gPEJLAukYkXdFoHl7Tc7gXGBlpjSZ0pg/AcwPoFlgVSsqNsisLz9ZicwLtASU/pMCYz/AMYnsCyQihV1WwSWt9/sBMYFWmJKnymB8R/A+ASWBVKxom6LwPL2m53AuEBLTOkzJTD+AxifwLJAKlbUbRFY3n6zExgXaIkpfaYExn8A4xNYFkjFirotAsvbb3YC4wItMaXPlMD4D2B8AssCqVhRt0VgefvNTmBcoCWm9EmAwL3AePx933dvqiIBAgQqBByAimfSJAECBO4FHIB7UxUJECBQIeAAVDyTJgkQIHAv4ADcm6pIgACBCgEHoOKZNEmAAIF7AQfg3lRFAgQIVAg4ABXPpEkCBAjcCzgA96YqEiBAoELAAah4Jk0SIEDgXsABuDdVkQABAhUCDkDFM2mSAAEC9wIOwL2pigQIEKgQcAAqnkmTBAgQuBdwAO5NVSRAgECFgANQ8UyaJECAwL2AA3BvqiIBAgQqBByAimfSJAECBO4FHIB7UxUJECBQIeAAVDyTJgkQIHAv4ADcm6pIgACBCgEHoOKZNEmAAIF7AQfg3lRFAgQIVAg4ABXPpEkCBAjcCzgA96YqEiBAoELAAah4Jk0SIEDgXsABuDdVkQABAhUCDkDFM2mSAAEC9wIOwL2pigQIEKgQcAAqnkmTBAgQuBdwAO5NVSRAgECFgANQ8UyaJECAwL2AA3BvqiIBAgQqBByAimfSJAECBO4FHIB7UxUJECBQIeAAVDyTJgkQIHAv4ADcm6pIgACBCgEHoOKZNEmAAIF7AQfg3lRFAgQIVAg4ABXPpEkCBAjcCzgA96YqEiBAoELAAah4Jk0SIEDgXsABuDdVkQABAhUCDkDFM2mSAAEC9wIOwL2pigQIEKgQcAAqnkmTBAgQuBdwAO5NVSRAgECFgANQ8UyaJECAwL2AA3BvqiIBAgQqBByAimfSJAECBO4FHIB7UxUJECBQIeAAVDyTJgkQIHAv4ADcm6pIgACBCgEHoOKZNEmAAIF7AQfg3lRFAgQIVAg4ABXPpEkCBAjcCzgA96YqEiBAoELAAah4Jk0SIEDgXsABuDdVkQABAhUCDkDFM2mSAAEC9wIOwL2pigQIEKgQcAAqnkmTBAgQuBdwAO5NVSRAgECFgANQ8UyaJECAwL2AA3BvqiIBAgQqBByAimfSJAECBO4FHIB7UxUJECBQIeAAVDyTJgkQIHAv4ADcm6pIgACBCgEHoOKZNEmAAIF7AQfg3lRFAgQIVAg4ABXPpEkCBAjcCzgA96YqEiBAoELAAah4Jk0SIEDgXsABuDdVkQABAhUCDkDFM2mSAAEC9wIOwL2pigQIEKgQcAAqnkmTBAgQuBdwAO5NVSRAgECFgANQ8UyaJECAwL2AA3BvqiIBAgQqBByAimfSJAECBO4FHIB7UxUJECBQIeAAVDyTJgkQIHAv4ADcm6pIgAABAgQIECBAgAABAgQIECBAgAABAgQIECBAgAABAgQIECBAgAABAgQIECBAgAABAgQIECBAgAABAgQIECBAgAABAgQIECBAgAABAgQIECBAgAABAgQIECBAgAABAgQIECBAgAABAgQIECBAgAABAgQIECBAgAABAgQIECBAgAABAgQIECBAgAABAgQIECBAgAABAgQIECBAgAABAgQIECBAgAABAgQIECBAgAABAgQIECBAgAABAgQIECBAgAABAgQIECBAgAABAgQIECBAgAABAgQIECBAgAABAgQIECBAgAABAgQIECBAgAABAgQIECBAgAABAgQIECBAgAABAgQIECBAgAABAgQIECBAgAABAgQIECBAgAABAgQIECBAgAABAgQIECBAgAABAgQIECBAgAABAgQIECBAgAABAgQIECBAgAABAgQIECBAgAABAgQIECBAgAABAgQIECBAgAABAgQIECBAgAABAgQIECBAgAABAgQIECBAgAABAgQIECBAgAABAgQIECBAgAABAgQIECBAgAABAgQIECBAgAABAgQIECBAgAABAgQIECBAgAABAgQIECBAgAABAgQIECBAgAABAgQIECBAgAABAgQIECBAgAABAgQIECBAgAABAgQIECBAgAABAgQIECBAgAABAgQIECBAgAABAgQIECBAgAABAgQIECBAgAABAgQIECBAgAABAgQIECBAgAABAgQIECBAgAABAgQIECBAgAABAgQIECBAgACBf4E/c9/RhEAtr8kAAAAASUVORK5CYII=;direction=north;" vertex="1" parent="1">
                    <mxGeometry x="50" y="355" width="80" height="80" as="geometry"/>
                </mxCell>
                <mxCell id="26" value="" style="ellipse;whiteSpace=wrap;html=1;aspect=fixed;fillColor=#FF8000;" vertex="1" parent="1">
                    <mxGeometry x="45" y="350" width="10" height="10" as="geometry"/>
                </mxCell>
                <mxCell id="27" value="" style="ellipse;whiteSpace=wrap;html=1;aspect=fixed;fillColor=#FF0000;" vertex="1" parent="1">
                    <mxGeometry x="45" y="430" width="10" height="10" as="geometry"/>
                </mxCell>
                <mxCell id="28" value="" style="ellipse;whiteSpace=wrap;html=1;aspect=fixed;fillColor=#80FF00;" vertex="1" parent="1">
                    <mxGeometry x="125" y="430" width="10" height="10" as="geometry"/>
                </mxCell>
                <mxCell id="29" value="" style="ellipse;whiteSpace=wrap;html=1;aspect=fixed;fillColor=#FFFF00;" vertex="1" parent="1">
                    <mxGeometry x="125" y="350" width="10" height="10" as="geometry"/>
                </mxCell>
                <mxCell id="30" value="2" style="text;html=1;align=center;verticalAlign=middle;whiteSpace=wrap;rounded=0;" vertex="1" parent="1">
                    <mxGeometry x="100" y="330" width="60" height="20" as="geometry"/>
                </mxCell>
                <mxCell id="31" value="3" style="text;html=1;align=center;verticalAlign=middle;whiteSpace=wrap;rounded=0;" vertex="1" parent="1">
                    <mxGeometry x="100" y="440" width="60" height="20" as="geometry"/>
                </mxCell>
                <mxCell id="32" value="" style="shape=image;verticalLabelPosition=bottom;labelBackgroundColor=default;verticalAlign=top;aspect=fixed;imageAspect=0;image=data:image/png,iVBORw0KGgoAAAANSUhEUgAAAgAAAAIACAIAAAB7GkOtAAAAAXNSR0IArs4c6QAAE/ZJREFUeAHt1dGNxUAIA8DXf9O5v6sAS2t5UgCCWWJ+Px8BAgQIECBAgAABAgQIECBAgAABAgQIECBAgAABAgQIECBAgAABAgQIECBAgAABAgQIECBAgAABAgQIECBAgAABAgQIECBAgAABAgQIECBAgAABAgQIECBAgAABAgQIECBAgAABAgQIECBAgAABAgQIECBAgAABAgQIECBAgAABAgQIECBAgAABAgQIECBAgAABAgQIECBAgAABAgQIECBAgAABAgQIECBAgAABAgQIECBAgAABAgQIECBAgAABAgQIECBAgAABAgQIECBAgAABAgQIECBAgAABAgQIECBAgAABAgQIECBAgAABAgQIECBAgAABAgQIECBAgAABAgQIECBAgAABAgQIECBAgAABAgQIECBAgAABAgQIECBAgAABAgQIECBAgAABAgQIECBAgAABAgQIECBAgAABAgQIECBAgAABAgQIECBAgAABAgQIECBAgAABAgQIECBAgAABAgQIECBAgAABAgQIECBAgAABAgQIECBAgAABAgQIECBAgAABAgQIECBAgAABAgQIECBAgAABAgQIECBAgAABAgQIECBAgAABAgQIECBAgAABAgQIECBAgAABAgQIECBAgAABAgQIECBAgAABAgQIECBAgAABAgQIECBAgAABAgQIECBAgAABAgQIECBAgAABAgQIECBAgAABAgQIECBAgAABAgQIECBAgAABAgQIECBAgAABAgQIECBAgAABAgQIECBAgAABAgQIECBAgAABAgQIECBAgAABAgQIECBAgEBE4PMNC0RWSlECBFoEhtPP6F/LluqTAIGIgBRcFoislKIECLQILMef2Vu2VJ8ECEQEhOCyQGSlFCVAoEVgOf7M3rKl+iRAICIgBJcFIiulKAECLQLL8Wf2li3VJwECEQEhuCwQWSlFCRBoEViOP7O3bKk+CRCICAjBZYHISilKgECLwHL8mb1lS/VJgEBEQAguC0RWSlECBFoEluPP7C1bqk8CBCICQnBZILJSihIg0CKwHH9mb9lSfRIgEBEQgssCkZVSlACBFoHl+DN7y5bqkwCBiIAQXBaIrJSiBAi0CCzHn9lbtlSfBAhEBITgskBkpRQlQKBFYDn+zN6ypfokQCAiIASXBSIrpSgBAi0Cy/Fn9pYt1ScBAhEBIbgsEFkpRQkQaBFYjj+zt2ypPgkQiAgIwWWByEopSoBAi8By/Jm9ZUv1SYBAREAILgtEVkpRAgRaBJbjz+wtW6pPAgQiAkJwWSCyUooSINAisBx/Zm/ZUn0SIBAREILLApGVUpQAgRaB5fgze8uW6pMAgYiAEFwWiKyUogQItAgsx5/ZW7ZUnwQIRASE4LJAZKUUJUCgRWA5/szesqX6JEAgIiAElwUiK6UoAQItAsvxZ/aWLdUnAQIRASG4LBBZKUUJEGgRWI4/s7dsqT4JEIgICMFlgchKKUqAQIvAcvyZvWVL9UmAQERACC4LRFZKUQIEWgSW48/sLVuqTwIEIgJCcFkgslKKEiDQIrAcf2Zv2VJ9EiAQERCCywKRlVKUAIEWgeX4M3vLluqTAIGIgBBcFoislKIECLQILMef2Vu2VJ8ECEQEhOCyQGSlFCVAoEVgOf7M3rKl+iRAICIgBJcFIiulKAECLQLL8Wf2li3VJwECEQEhuCwQWSlFCRBoEViOP7O3bKk+CRCICAjBZYHISilKgECLwHL8mb1lS/VJgEBEQAguC0RWSlECBFoEluPP7C1bqk8CBCICQnBZILJSihIg0CKwHH9mb9lSfRIgEBEQgssCkZVSlACBFoHl+DN7y5bqkwCBiIAQXBaIrJSiBAi0CCzHn9lbtlSfBAhEBITgskBkpRQlQKBFYDn+zN6ypfokQCAiIASXBSIrpSgBAi0Cy/Fn9pYt1ScBAhEBIbgsEFkpRQkQaBFYjj+zt2ypPgkQiAgIwWWByEopSoBAi8By/Jm9ZUv1SYBAREAILgtEVkpRAgRaBJbjz+wtW6pPAgQiAkJwWSCyUooSINAisBx/Zm/ZUn0SIBAREILLApGVUpQAgRaB5fgze8uW6pMAgYiAEFwWiKyUogQItAgsx5/ZW7ZUnwQIRASE4LJAZKUUJUCAQIXAcvp/31fxRpokQIBARMABiLAqSoAAgfcFHID330iHBAgQiAg4ABFWRQkQIPC+gAPw/hvpkAABAhEBByDCqigBAgTeF3AA3n8jHRIgQCAi4ABEWBUlQIDA+wIOwPtvpEMCBAhEBByACKuiBAgQeF/AAXj/jXRIgACBiIADEGFVlAABAu8LOADvv5EOCRAgEBFwACKsihIgQOB9AQfg/TfSIQECBCICDkCEVVECBAi8L+AAvP9GOiRAgEBEwAGIsCpKgACB9wUcgPffSIcECBCICDgAEVZFCRAg8L6AA/D+G+mQAAECEQEHIMKqKAECBN4XcADefyMdEiBAICLgAERYFSVAgMD7Ag7A+2+kQwIECEQEHIAIq6IECBB4X8ABeP+NdEiAAIGIgAMQYVWUAAEC7ws4AO+/kQ4JECAQEXAAIqyKEiBA4H0BB+D9N9IhAQIEIgIOQIRVUQIECLwv4AC8/0Y6JECAQETAAYiwKkqAAIH3BRyA999IhwQIEIgIOAARVkUJECDwvoAD8P4b6ZAAAQIRAQcgwqooAQIE3hdwAN5/Ix0SIEAgIuAARFgVJUCAwPsCDsD7b6RDAgQIRAQcgAirogQIEHhfwAF4/410SIAAgYiAAxBhVZQAAQLvCzgA77+RDgkQIBARcAAirIoSIEDgfQEH4P030iEBAgQiAg5AhFVRAgQIvC/gALz/RjokQIBARMABiLAqSoAAgfcFHID330iHBAgQiAg4ABFWRQkQIPC+gAPw/hvpkAABAhEBByDCqigBAgTeF3AA3n8jHRIgQCAi4ABEWBUlQIDA+wIOwPtvpEMCBAhEBByACKuiBAgQeF/AAXj/jXRIgACBiIADEGFVlAABAu8LOADvv5EOCRAgEBFwACKsihIgQOB9AQfg/TfSIQECBCICDkCEVVECBAi8L+AAvP9GOiRAgEBEwAGIsCpKgACB9wUcgPffSIcECBCICDgAEVZFCRAg8L6AA/D+G+mQAAECEQEHIMKqKAECBN4XcADefyMdEiBAICLgAERYFSVAgMD7Ag7A+2+kQwIECEQEHIAIq6IECBB4X8ABeP+NdEiAAIGIgAMQYVWUAAEC7ws4AO+/kQ4JECAQEXAAIqyKEiBA4H0BB+D9N9IhAQIEIgIOQIRVUQIECLwv4AC8/0Y6JECAQETAAYiwKkqAAIH3BRyA999IhwQIEIgIOAARVkUJECDwvoAD8P4b6ZAAgZTAeAIan8CyQCpW1G0RWN5+sxMYF2iJKX2mBMZ/AOMTWBZIxYq6LQLL2292AuMCLTGlz5TA+A9gfALLAqlYUbdFYHn7zU5gXKAlpvSZEhj/AYxPYFkgFSvqtggsb7/ZCYwLtMSUPlMC4z+A8QksC6RiRd0WgeXtNzuBcYGWmNJnSmD8BzA+gWWBVKyo2yKwvP1mJzAu0BJT+kwJjP8AxiewLJCKFXVbBJa33+wExgVaYkqfKYHxH8D4BJYFUrGibovA8vabncC4QEtM6TMlMP4DGJ/AskAqVtRtEVjefrMTGBdoiSl9pgTGfwDjE1gWSMWKui0Cy9tvdgLjAi0xpc+UwPgPYHwCywKpWFG3RWB5+81OYFygJab0mRIY/wGMT2BZIBUr6rYILG+/2QmMC7TElD5TAuM/gPEJLAukYkXdFoHl7Tc7gXGBlpjSZ0pg/AcwPoFlgVSsqNsisLz9ZicwLtASU/pMCYz/AMYnsCyQihV1WwSWt9/sBMYFWmJKnymB8R/A+ASWBVKxom6LwPL2m53AuEBLTOkzJTD+AxifwLJAKlbUbRFY3n6zExgXaIkpfaYExn8A4xNYFkjFirotAsvbb3YC4wItMaXPlMD4D2B8AssCqVhRt0VgefvNTmBcoCWm9JkSGP8BjE9gWSAVK+q2CCxvv9kJjAu0xJQ+UwLjP4DxCSwLpGJF3RaB5e03O4FxgZaY0mdKYPwHMD6BZYFUrKjbIrC8/WYnMC7QElP6TAmM/wDGJ7AskIoVdVsElrff7ATGBVpiSp8pgfEfwPgElgVSsaJui8Dy9pudwLhAS0zpMyUw/gMYn8CyQCpW1G0RWN5+sxMYF2iJKX2mBMZ/AOMTWBZIxYq6LQLL2292AuMCLTGlz5TA+A9gfALLAqlYUbdFYHn7zU5gXKAlpvSZEhj/AYxPYFkgFSvqtggsb7/ZCYwLtMSUPlMC4z+A8QksC6RiRd0WgeXtNzuBcYGWmNJnSmD8BzA+gWWBVKyo2yKwvP1mJzAu0BJT+kwJjP8AxiewLJCKFXVbBJa33+wExgVaYkqfKYHxH8D4BJYFUrGibovA8vabncC4QEtM6TMlMP4DGJ/AskAqVtRtEVjefrMTGBdoiSl9pgTGfwDjE1gWSMWKui0Cy9tvdgLjAi0xpc+UwPgPYHwCywKpWFG3RWB5+81OYFygJab0mRIY/wGMT2BZIBUr6rYILG+/2QmMC7TElD5TAuM/gPEJLAukYkXdFoHl7Tc7gXGBlpjSZ0pg/AcwPoFlgVSsqNsisLz9ZicwLtASU/pMCYz/AMYnsCyQihV1WwSWt9/sBMYFWmJKnymB8R/A+ASWBVKxom6LwPL2m53AuEBLTOkzJTD+AxifwLJAKlbUbRFY3n6zExgXaIkpfaYExn8A4xNYFkjFirotAsvbb3YC4wItMaXPlMD4D2B8AssCqVhRt0VgefvNTmBcoCWm9EmAwL3AePx933dvqiIBAgQqBByAimfSJAECBO4FHIB7UxUJECBQIeAAVDyTJgkQIHAv4ADcm6pIgACBCgEHoOKZNEmAAIF7AQfg3lRFAgQIVAg4ABXPpEkCBAjcCzgA96YqEiBAoELAAah4Jk0SIEDgXsABuDdVkQABAhUCDkDFM2mSAAEC9wIOwL2pigQIEKgQcAAqnkmTBAgQuBdwAO5NVSRAgECFgANQ8UyaJECAwL2AA3BvqiIBAgQqBByAimfSJAECBO4FHIB7UxUJECBQIeAAVDyTJgkQIHAv4ADcm6pIgACBCgEHoOKZNEmAAIF7AQfg3lRFAgQIVAg4ABXPpEkCBAjcCzgA96YqEiBAoELAAah4Jk0SIEDgXsABuDdVkQABAhUCDkDFM2mSAAEC9wIOwL2pigQIEKgQcAAqnkmTBAgQuBdwAO5NVSRAgECFgANQ8UyaJECAwL2AA3BvqiIBAgQqBByAimfSJAECBO4FHIB7UxUJECBQIeAAVDyTJgkQIHAv4ADcm6pIgACBCgEHoOKZNEmAAIF7AQfg3lRFAgQIVAg4ABXPpEkCBAjcCzgA96YqEiBAoELAAah4Jk0SIEDgXsABuDdVkQABAhUCDkDFM2mSAAEC9wIOwL2pigQIEKgQcAAqnkmTBAgQuBdwAO5NVSRAgECFgANQ8UyaJECAwL2AA3BvqiIBAgQqBByAimfSJAECBO4FHIB7UxUJECBQIeAAVDyTJgkQIHAv4ADcm6pIgACBCgEHoOKZNEmAAIF7AQfg3lRFAgQIVAg4ABXPpEkCBAjcCzgA96YqEiBAoELAAah4Jk0SIEDgXsABuDdVkQABAhUCDkDFM2mSAAEC9wIOwL2pigQIEKgQcAAqnkmTBAgQuBdwAO5NVSRAgECFgANQ8UyaJECAwL2AA3BvqiIBAgQqBByAimfSJAECBO4FHIB7UxUJECBQIeAAVDyTJgkQIHAv4ADcm6pIgACBCgEHoOKZNEmAAIF7AQfg3lRFAgQIVAg4ABXPpEkCBAjcCzgA96YqEiBAoELAAah4Jk0SIEDgXsABuDdVkQABAhUCDkDFM2mSAAEC9wIOwL2pigQIEKgQcAAqnkmTBAgQuBdwAO5NVSRAgECFgANQ8UyaJECAwL2AA3BvqiIBAgQqBByAimfSJAECBO4FHIB7UxUJECBQIeAAVDyTJgkQIHAv4ADcm6pIgAABAgQIECBAgAABAgQIECBAgAABAgQIECBAgAABAgQIECBAgAABAgQIECBAgAABAgQIECBAgAABAgQIECBAgAABAgQIECBAgAABAgQIECBAgAABAgQIECBAgAABAgQIECBAgAABAgQIECBAgAABAgQIECBAgAABAgQIECBAgAABAgQIECBAgAABAgQIECBAgAABAgQIECBAgAABAgQIECBAgAABAgQIECBAgAABAgQIECBAgAABAgQIECBAgAABAgQIECBAgAABAgQIECBAgAABAgQIECBAgAABAgQIECBAgAABAgQIECBAgAABAgQIECBAgAABAgQIECBAgAABAgQIECBAgAABAgQIECBAgAABAgQIECBAgAABAgQIECBAgAABAgQIECBAgAABAgQIECBAgAABAgQIECBAgAABAgQIECBAgAABAgQIECBAgAABAgQIECBAgAABAgQIECBAgAABAgQIECBAgAABAgQIECBAgAABAgQIECBAgAABAgQIECBAgAABAgQIECBAgAABAgQIECBAgAABAgQIECBAgAABAgQIECBAgAABAgQIECBAgAABAgQIECBAgAABAgQIECBAgAABAgQIECBAgAABAgQIECBAgAABAgQIECBAgAABAgQIECBAgAABAgQIECBAgAABAgQIECBAgAABAgQIECBAgAABAgQIECBAgAABAgQIECBAgAABAgQIECBAgAABAgQIECBAgAABAgQIECBAgAABAgQIECBAgACBf4E/c9/RhEAtr8kAAAAASUVORK5CYII=;direction=west;" vertex="1" parent="1">
                    <mxGeometry x="190" y="355" width="80" height="80" as="geometry"/>
                </mxCell>
                <mxCell id="33" value="" style="ellipse;whiteSpace=wrap;html=1;aspect=fixed;fillColor=#FF8000;" vertex="1" parent="1">
                    <mxGeometry x="185" y="430" width="10" height="10" as="geometry"/>
                </mxCell>
                <mxCell id="34" value="" style="ellipse;whiteSpace=wrap;html=1;aspect=fixed;fillColor=#FF0000;" vertex="1" parent="1">
                    <mxGeometry x="265" y="430" width="10" height="10" as="geometry"/>
                </mxCell>
                <mxCell id="35" value="" style="ellipse;whiteSpace=wrap;html=1;aspect=fixed;fillColor=#80FF00;" vertex="1" parent="1">
                    <mxGeometry x="265" y="350" width="10" height="10" as="geometry"/>
                </mxCell>
                <mxCell id="36" value="" style="ellipse;whiteSpace=wrap;html=1;aspect=fixed;fillColor=#FFFF00;" vertex="1" parent="1">
                    <mxGeometry x="185" y="350" width="10" height="10" as="geometry"/>
                </mxCell>
                <mxCell id="37" value="3" style="text;html=1;align=center;verticalAlign=middle;whiteSpace=wrap;rounded=0;" vertex="1" parent="1">
                    <mxGeometry x="240" y="330" width="60" height="20" as="geometry"/>
                </mxCell>
                <mxCell id="38" value="0" style="text;html=1;align=center;verticalAlign=middle;whiteSpace=wrap;rounded=0;" vertex="1" parent="1">
                    <mxGeometry x="240" y="440" width="60" height="20" as="geometry"/>
                </mxCell>
                <mxCell id="39" value="2" style="text;html=1;align=center;verticalAlign=middle;whiteSpace=wrap;rounded=0;" vertex="1" parent="1">
                    <mxGeometry x="160" y="330" width="60" height="20" as="geometry"/>
                </mxCell>
                <mxCell id="40" value="1" style="text;html=1;align=center;verticalAlign=middle;whiteSpace=wrap;rounded=0;" vertex="1" parent="1">
                    <mxGeometry x="160" y="440" width="60" height="20" as="geometry"/>
                </mxCell>
                <mxCell id="41" value="" style="endArrow=none;html=1;" edge="1" parent="1">
                    <mxGeometry width="50" height="50" relative="1" as="geometry">
                        <mxPoint x="20" y="320" as="sourcePoint"/>
                        <mxPoint x="300" y="320" as="targetPoint"/>
                    </mxGeometry>
                </mxCell>
                <mxCell id="42" value="" style="endArrow=none;html=1;" edge="1" parent="1">
                    <mxGeometry width="50" height="50" relative="1" as="geometry">
                        <mxPoint x="160" y="470" as="sourcePoint"/>
                        <mxPoint x="160" y="180" as="targetPoint"/>
                    </mxGeometry>
                </mxCell>
                <mxCell id="43" value="1" style="text;html=1;align=center;verticalAlign=middle;whiteSpace=wrap;rounded=0;" vertex="1" parent="1">
                    <mxGeometry x="20" y="330" width="60" height="20" as="geometry"/>
                </mxCell>
                <mxCell id="44" value="0" style="text;html=1;align=center;verticalAlign=middle;whiteSpace=wrap;rounded=0;" vertex="1" parent="1">
                    <mxGeometry x="20" y="440" width="60" height="20" as="geometry"/>
                </mxCell>
            </root>
        </mxGraphModel>
    </diagram>
</mxfile>